<svg width="48" height="20" viewBox="0 0 48 20" fill="none" xmlns="http://www.w3.org/2000/svg">
<mask id="mask0_81_96" style="mask-type:alpha" maskUnits="userSpaceOnUse" x="0" y="0" width="20" height="20">
<rect width="20" height="20" fill="#D9D9D9"/>
</mask>
<g mask="url(#mask0_81_96)">
<path d="M2.83333 10L8.70833 15.875C8.90278 16.0695 9 16.3056 9 16.5834C9 16.8611 8.90278 17.0972 8.70833 17.2917C8.51389 17.4861 8.27778 17.5834 8 17.5834C7.72222 17.5834 7.48611 17.4861 7.29167 17.2917L1.0625 11.0625C0.909722 10.9097 0.798611 10.7431 0.729167 10.5625C0.659722 10.382 0.625 10.1945 0.625 10C0.625 9.80558 0.659722 9.61808 0.729167 9.43752C0.798611 9.25696 0.909722 9.0903 1.0625 8.93752L7.29167 2.70835C7.48611 2.51391 7.72222 2.41669 8 2.41669C8.27778 2.41669 8.51389 2.51391 8.70833 2.70835C8.90278 2.9028 9 3.13891 9 3.41669C9 3.69446 8.90278 3.93058 8.70833 4.12502L2.83333 10Z" fill="#717171"/>
</g>
<mask id="mask1_81_96" style="mask-type:alpha" maskUnits="userSpaceOnUse" x="28" y="0" width="20" height="20">
<rect x="28" width="20" height="20" fill="#D9D9D9"/>
</mask>
<g mask="url(#mask1_81_96)">
<path d="M39.1667 10L33.2917 4.12502C33.0972 3.93058 33 3.69446 33 3.41669C33 3.13891 33.0972 2.9028 33.2917 2.70835C33.4861 2.51391 33.7222 2.41669 34 2.41669C34.2778 2.41669 34.5139 2.51391 34.7083 2.70835L40.9375 8.93752C41.0903 9.0903 41.2014 9.25696 41.2708 9.43752C41.3403 9.61808 41.375 9.80558 41.375 10C41.375 10.1945 41.3403 10.382 41.2708 10.5625C41.2014 10.7431 41.0903 10.9097 40.9375 11.0625L34.7083 17.2917C34.5139 17.4861 34.2778 17.5834 34 17.5834C33.7222 17.5834 33.4861 17.4861 33.2917 17.2917C33.0972 17.0972 33 16.8611 33 16.5834C33 16.3056 33.0972 16.0695 33.2917 15.875L39.1667 10Z" fill="#BEBEBE"/>
</g>
</svg>
