<svg width="13" height="12" viewBox="0 0 13 12" fill="none" xmlns="http://www.w3.org/2000/svg">
<path d="M0.432373 1.50098V10.1196V10.2709C0.432373 10.547 0.656231 10.7709 0.932373 10.7709H12.1053C12.3814 10.7709 12.6053 10.547 12.6053 10.2709V2.40236C12.6053 2.12622 12.3814 1.90236 12.1053 1.90236L5.79865 1.90236C5.69997 1.90236 5.60349 1.87316 5.52137 1.81843L4.42071 1.08491C4.33859 1.03018 4.24211 1.00098 4.14342 1.00098H0.932373C0.656231 1.00098 0.432373 1.22484 0.432373 1.50098Z" stroke="#0071FE" stroke-width="0.5"/>
<path d="M0.417114 4.46681C0.417114 4.19067 0.640972 3.96681 0.917114 3.96681H12.1053C12.3814 3.96681 12.6053 4.19067 12.6053 4.46681V10.2902C12.6053 10.5664 12.3814 10.7902 12.1053 10.7902H0.917115C0.640972 10.7902 0.417114 10.5664 0.417114 10.2902V4.46681Z" stroke="#0071FE" stroke-width="0.5"/>
</svg>
