<svg width="125" height="124" viewBox="0 0 125 124" fill="none" xmlns="http://www.w3.org/2000/svg">
<path d="M62.5 108.5C59.6235 108.5 57.2917 106.168 57.2917 103.292V93.6773C57.2917 86.5552 48.6852 82.9836 43.6424 88.0129L36.7443 94.8926C34.7135 96.918 31.428 96.9224 29.3918 94.9025V94.9025C27.3323 92.8595 27.3368 89.5283 29.4017 87.4909L36.1207 80.8613C41.2125 75.8373 37.655 67.1667 30.5019 67.1667H20.7917C17.9382 67.1667 15.625 64.8535 15.625 62V62C15.625 59.1465 17.9382 56.8333 20.7917 56.8333H30.5019C37.655 56.8333 41.2125 48.1627 36.1207 43.1387L29.4017 36.5091C27.3368 34.4717 27.3323 31.1405 29.3918 29.0975V29.0975C31.428 27.0776 34.7135 27.082 36.7442 29.1074L43.6424 35.9871C48.6852 41.0164 57.2917 37.4448 57.2917 30.3227V20.7083C57.2917 17.8319 59.6235 15.5 62.5 15.5V15.5C65.3765 15.5 67.7083 17.8318 67.7083 20.7083V30.3227C67.7083 37.4448 76.3148 41.0164 81.3576 35.9871L88.2558 29.1074C90.2865 27.082 93.572 27.0776 95.6082 29.0975V29.0975C97.6677 31.1405 97.6632 34.4717 95.5983 36.5091L88.8793 43.1387C83.7875 48.1627 87.345 56.8333 94.4981 56.8333H104.208C107.062 56.8333 109.375 59.1465 109.375 62V62C109.375 64.8535 107.062 67.1667 104.208 67.1667H94.4981C87.345 67.1667 83.7875 75.8373 88.8793 80.8613L95.5983 87.4909C97.6632 89.5283 97.6677 92.8595 95.6082 94.9025V94.9025C93.572 96.9224 90.2865 96.918 88.2558 94.8926L81.3576 88.0129C76.3148 82.9836 67.7083 86.5552 67.7083 93.6773V103.292C67.7083 106.168 65.3765 108.5 62.5 108.5V108.5Z" fill="#74D0FB"/>
</svg>
